# xmcd CD database file
#
# Track frame offsets:
#	150
#	16210
#	41880
#	56742
#	72045
#	87802
#	99757
#	125700
#	145280
#	166140
#	183352
#	204277
#	226252
#	244765
#	270645
#	289710
#
# Disc length: 4282 seconds
#
# Revision: 0
# Processed by: cddbd v1.4PL0 Copyright (c) Steve Scherf et al.
# Submitted via: CDex 1.50beta9
#
DISCID=d810b810
DTITLE=Rod Mason and his Hot Five - 4.Dixieland Jubilee 2000
DYEAR=2000
DGENRE=Jazz
TTITLE0=Where The Blues Were Born
TTITLE1=Down In Honky Tonk Town
TTITLE2=I´ll Be Glad When You ´re Dead, You Rascal You
TTITLE3=Heebie Jeebies
TTITLE4=Weary Blues
TTITLE5=Muskrat Rumble
TTITLE6=Back O Town Blues
TTITLE7=Don´t Forget To Mess Around
TTITLE8=Nobody Knows The Trouble I´ve Seen
TTITLE9=Snake Rag
TTITLE10=Si Tu Vois Ma Mere
TTITLE11=Some Of These Days
TTITLE12=Tiger Rag
TTITLE13=Chicago Break Down
TTITLE14=What A Wonderful World
TTITLE15=When The Saints Go Marchin´In
EXTD=YEAR: 2000
EXTT0=
EXTT1=
EXTT2=
EXTT3=
EXTT4=
EXTT5=
EXTT6=
EXTT7=
EXTT8=
EXTT9=
EXTT10=
EXTT11=
EXTT12=
EXTT13=
EXTT14=
EXTT15=
PLAYORDER=
